<?xml version="1.0" encoding="utf-8"?>
<!-- Generator: Adobe Illustrator 16.0.3, SVG Export Plug-In . SVG Version: 6.00 Build 0)  -->
<!DOCTYPE svg PUBLIC "-//W3C//DTD SVG 1.1//EN" "http://www.w3.org/Graphics/SVG/1.1/DTD/svg11.dtd">
<svg version="1.1" id="Layer_1" xmlns="http://www.w3.org/2000/svg" xmlns:xlink="http://www.w3.org/1999/xlink" x="0px" y="0px"
	 width="512px" height="512px" viewBox="0 0 512 512" enable-background="new 0 0 512 512" xml:space="preserve">
<g>
	<path fill="#F80745" d="M336.391,176.934c0,10.344-8.389,18.729-18.73,18.729H192.996c-10.346,0-18.729-8.385-18.729-18.729l0,0
		c0-10.344,8.384-18.729,18.729-18.729h124.663C328.002,158.206,336.391,166.59,336.391,176.934L336.391,176.934z"/>
	<path fill="#0D0D0D" d="M211.353,308.814c0-22.625,18.34-40.965,40.964-40.965h6.023c22.623,0,40.965,18.34,40.965,40.965v44.979
		h37.457v-49.828c0-41.896-33.963-75.855-75.855-75.855h-11.154c-41.896,0-75.855,33.959-75.855,75.855v49.828h37.457
		L211.353,308.814L211.353,308.814z"/>
	<path fill="#1A1A1A" d="M480.768,137.36c-0.831-6.097-3.819-11.501-8.177-15.406c-4.931-5.173-11.755-7.954-17.826-11.582
		c-16.195-9.667-32.573-19.028-48.913-28.449c-15.923-9.18-31.913-18.234-47.828-27.426c-15.926-9.194-31.744-18.564-47.688-27.721
		c-14.522-8.34-29.108-16.558-43.762-24.667c-2.114-1.17-4.729-1.429-7.114-2.11c-2.313,0-4.616,0-6.92,0
		c-18.747,5.146-33.71,17.586-50.47,26.543c-16.482,8.81-32.408,18.662-48.574,28.066c-16.033,9.325-32.035,18.697-48.086,27.985
		c-14.237,8.238-28.545,16.354-42.781,24.595c-6.832,3.956-14.208,7.321-20.138,12.374c-0.132,0.109-0.24,0.237-0.369,0.35
		c-5.148,3.52-8.924,8.911-10.36,15.197c-0.285,0.587-0.496,1.222-0.762,1.82c0,79.38,0,158.758,0,238.139
		c3.666,14.328,15.247,20.785,26.809,27.4c18.899,10.813,37.655,21.879,56.517,32.76c18.303,10.559,36.707,20.938,54.986,31.537
		c19.952,11.567,39.756,23.396,59.753,34.888c6.626,3.809,13.656,6.918,20.505,10.346c4.287,0,8.572,0,12.854,0
		c14.904-8.18,29.888-16.224,44.701-24.581c14.468-8.165,28.75-16.652,43.123-24.996c16.178-9.393,32.339-18.811,48.533-28.165
		c15.925-9.194,31.894-18.299,47.813-27.499c7.396-4.277,14.895-8.42,22.02-13.125c6.593-4.353,9.778-11.351,12.385-18.563
		c0-79.051,0-158.099,0-237.148C480.918,137.736,480.839,137.548,480.768,137.36z M441.442,368.636
		c-16.021,9.076-32.004,18.203-47.931,27.438c-17.609,10.208-35.114,20.589-52.708,30.817
		c-13.824,8.037-27.704,15.973-41.563,23.938c-13.869,7.969-27.71,15.974-41.668,23.787c-1.287,0.725-3.662,0.826-4.909,0.113
		c-18.215-10.436-36.325-21.062-54.456-31.64c-24.553-14.324-49.079-28.7-73.673-42.955c-18.303-10.608-36.665-21.123-55.097-31.513
		c-2.8-1.578-3.889-3.34-3.886-6.551c0.073-70.777,0.063-141.556,0.021-212.334c-0.003-2.508,0.507-4.039,2.961-5.452
		c27.013-15.555,53.885-31.356,80.86-46.971c24.744-14.32,49.586-28.462,74.349-42.746c9.368-5.405,18.535-11.176,28.043-16.324
		c1.977-1.071,5.57-1.066,7.512,0.04c20.78,11.82,41.372,23.962,62.019,36.01c22.041,12.86,44.053,25.765,66.133,38.552
		c18.306,10.602,36.646,21.163,55.105,31.479c2.843,1.588,2.858,3.507,2.856,6.003c-0.019,35.389-0.013,70.778-0.013,106.167
		c0,34.893-0.066,69.787,0.1,104.679C445.517,364.771,444.485,366.912,441.442,368.636z"/>
</g>
</svg>
